<svg width="32" height="24" viewBox="0 0 32 24" fill="none" xmlns="http://www.w3.org/2000/svg">
<g clip-path="url(#clip0_1661_1610)">
<rect width="32" height="24" fill="white"/>
<path fill-rule="evenodd" clip-rule="evenodd" d="M0 0V24H32V0H0Z" fill="#F7FCFF"/>
<mask id="mask0_1661_1610" style="mask-type:luminance" maskUnits="userSpaceOnUse" x="0" y="0" width="32" height="24">
<path fill-rule="evenodd" clip-rule="evenodd" d="M0 0V24H32V0H0Z" fill="white"/>
</mask>
<g mask="url(#mask0_1661_1610)">
<path fill-rule="evenodd" clip-rule="evenodd" d="M0 0V8H32V0H0Z" fill="#E31D1C"/>
<path fill-rule="evenodd" clip-rule="evenodd" d="M0 16V24H32V16H0Z" fill="#3D58DB"/>
<rect x="10.0765" y="6.39732" width="11.4" height="4" fill="#E31D1C"/>
<path d="M10.6522 8.95982H20.7807C20.7978 9.72878 20.803 11.0702 20.8029 12.3615C20.8028 13.1954 20.8006 13.9983 20.7984 14.5927C20.7973 14.8899 20.7962 15.135 20.7954 15.3057L20.7945 15.5032L20.7943 15.5318C20.7941 15.5328 20.794 15.5339 20.7938 15.535C20.7893 15.5616 20.7818 15.6035 20.7703 15.6584C20.7473 15.7685 20.7085 15.9301 20.6469 16.1259C20.5231 16.5193 20.3101 17.0408 19.9552 17.5589C19.2607 18.5728 17.9998 19.6153 15.6497 19.6153C13.3028 19.6153 12.1029 18.5742 11.4643 17.5701C11.1363 17.0544 10.949 16.5347 10.8442 16.1417C10.7921 15.9462 10.7611 15.7847 10.7433 15.6747C10.7345 15.6198 10.729 15.578 10.7258 15.5514C10.7251 15.545 10.7244 15.5395 10.7239 15.5349L10.7234 15.4901L10.721 15.2938L10.7125 14.5853C10.7055 13.9944 10.6961 13.1958 10.6867 12.3647C10.6724 11.0949 10.6582 9.75336 10.6522 8.95982ZM10.7222 15.5185C10.7222 15.5183 10.7222 15.5182 10.7222 15.5185L10.7222 15.5185Z" fill="#F7FCFF" stroke="#E31D1C" stroke-width="1.125"/>
<mask id="mask1_1661_1610" style="mask-type:luminance" maskUnits="userSpaceOnUse" x="10" y="8" width="12" height="13">
<path d="M10.6522 8.95982H20.7807C20.7978 9.72878 20.803 11.0702 20.8029 12.3615C20.8028 13.1954 20.8006 13.9983 20.7984 14.5927C20.7973 14.8899 20.7962 15.135 20.7954 15.3057L20.7945 15.5032L20.7943 15.5318C20.7941 15.5328 20.794 15.5339 20.7938 15.535C20.7893 15.5616 20.7818 15.6035 20.7703 15.6584C20.7473 15.7685 20.7085 15.9301 20.6469 16.1259C20.5231 16.5193 20.3101 17.0408 19.9552 17.5589C19.2607 18.5728 17.9998 19.6153 15.6497 19.6153C13.3028 19.6153 12.1029 18.5742 11.4643 17.5701C11.1363 17.0544 10.949 16.5347 10.8442 16.1417C10.7921 15.9462 10.7611 15.7847 10.7433 15.6747C10.7345 15.6198 10.729 15.578 10.7258 15.5514C10.7251 15.545 10.7244 15.5395 10.7239 15.5349L10.7234 15.4901L10.721 15.2938L10.7125 14.5853C10.7055 13.9944 10.6961 13.1958 10.6867 12.3647C10.6724 11.0949 10.6582 9.75336 10.6522 8.95982ZM10.7222 15.5185C10.7222 15.5183 10.7222 15.5182 10.7222 15.5185L10.7222 15.5185Z" fill="white" stroke="white" stroke-width="1.125"/>
</mask>
<g mask="url(#mask1_1661_1610)">
<path fill-rule="evenodd" clip-rule="evenodd" d="M10.4984 9.03989H12.6078V11.1818H10.4984V9.03989ZM14.7172 11.1818H12.6078V13.3237H10.4984V15.4656H12.6078V17.6075H10.4984V19.7494H12.6078V17.6075H14.7172V19.7494H16.8265V17.6075H18.9359V19.7494H21.0453V17.6075H18.9359V15.4656H21.0453V13.3237H18.9359V11.1818H21.0453V9.03989H18.9359V11.1818H16.8265V9.03989H14.7172V11.1818ZM14.7172 13.3237V11.1818H16.8265V13.3237H14.7172ZM14.7172 15.4656V13.3237H12.6078V15.4656H14.7172ZM16.8265 15.4656V17.6075H14.7172V15.4656H16.8265ZM16.8265 15.4656V13.3237H18.9359V15.4656H16.8265Z" fill="#F50100"/>
</g>
<path fill-rule="evenodd" clip-rule="evenodd" d="M10.453 8.16263C10.453 8.16263 11.1055 7.81414 11.6619 7.63454C12.2184 7.45494 12.6583 7.35681 12.6583 7.35681L11.8303 4.30472L10.172 3.68514L9.23279 5.23324L10.453 8.16263Z" fill="#56C6F5" stroke="white" stroke-width="0.5"/>
<path d="M10.181 6.49078L10.3716 6.39892C10.5684 6.81984 10.8278 6.94985 11.1833 6.81717C11.5465 6.68163 11.6945 6.42534 11.6423 6.01902L11.8514 5.99129C11.9163 6.49566 11.7129 6.84771 11.2561 7.01821C10.7916 7.19155 10.4221 7.00633 10.181 6.49078Z" fill="white"/>
<path fill-rule="evenodd" clip-rule="evenodd" d="M10.6323 5.54185L10.4501 5.65221C10.4098 5.67663 10.3597 5.64153 10.3688 5.5953L10.4102 5.38636L10.2236 5.28377C10.1823 5.26107 10.1876 5.20011 10.2322 5.18493L10.4339 5.11631L10.4294 4.90336C10.4284 4.85624 10.4838 4.83038 10.5193 4.86143L10.6795 5.00175L10.8617 4.89139C10.902 4.86697 10.9522 4.90206 10.943 4.9483L10.9016 5.15723L11.0883 5.25983C11.1296 5.28253 11.1242 5.34348 11.0796 5.35866L10.878 5.42729L10.8825 5.64024C10.8835 5.68736 10.828 5.71321 10.7925 5.68217L10.6323 5.54185Z" fill="#FECA00"/>
<path fill-rule="evenodd" clip-rule="evenodd" d="M14.5407 7.0758C14.5407 7.0758 15.0971 7.02614 15.6817 7.0375C16.2664 7.04886 16.7609 7.05301 16.7609 7.05301L17.0465 4.04353L15.7942 2.91214L14.4021 4.07012L14.5407 7.0758Z" fill="#56C6F5" stroke="white" stroke-width="0.5"/>
<path fill-rule="evenodd" clip-rule="evenodd" d="M15.7501 6.58482C16.2325 6.58482 16.2787 6.06386 16.2787 5.70898C16.1553 5.51214 16.1802 5.37129 15.7848 5.37129C15.3895 5.37129 15.3444 5.49075 15.229 5.70898C15.229 6.06386 15.2678 6.58482 15.7501 6.58482Z" fill="#FECA00"/>
<path fill-rule="evenodd" clip-rule="evenodd" d="M16.293 5.11286C16.7753 5.11286 16.8215 4.5919 16.8215 4.23702C16.6982 4.04019 16.723 3.89933 16.3277 3.89933C15.9323 3.89933 15.8872 4.01879 15.7719 4.23702C15.7719 4.5919 15.8106 5.11286 16.293 5.11286Z" fill="#FECA00"/>
<path fill-rule="evenodd" clip-rule="evenodd" d="M15.2383 5.11286C15.7206 5.11286 15.7668 4.5919 15.7668 4.23702C15.6435 4.04019 15.6683 3.89933 15.273 3.89933C14.8776 3.89933 14.8325 4.01879 14.7172 4.23702C14.7172 4.5919 14.7559 5.11286 15.2383 5.11286Z" fill="#FECA00"/>
<path d="M12.4446 7.60486L12.3726 7.36017L11.506 4.41643L11.465 4.27693L11.5659 4.17226L12.8044 2.88835L12.9537 2.73355L13.1291 2.85809L14.4918 3.8259L14.5862 3.89292L14.5961 4.00824L14.8484 6.93265L14.8709 7.19319L14.6096 7.20393L14.6096 7.20393L14.6096 7.20393L14.6093 7.20394L14.6082 7.20398L14.6037 7.20418L14.5857 7.20498L14.5179 7.20827C14.46 7.21124 14.3786 7.21575 14.2853 7.22193C14.0973 7.23437 13.8664 7.2532 13.6811 7.27894C13.5042 7.30353 13.2591 7.3642 13.0501 7.42173C12.9474 7.45001 12.8565 7.47667 12.7912 7.49626C12.7586 7.50604 12.7326 7.51403 12.7147 7.51954L12.6944 7.52586L12.6893 7.52745L12.6881 7.52783L12.6878 7.52792L12.6878 7.52792L12.4446 7.60486ZM12.4446 7.60486L12.6878 7.52793L12.4446 7.60486Z" fill="#2E42A5" stroke="white" stroke-width="0.5"/>
<mask id="mask2_1661_1610" style="mask-type:luminance" maskUnits="userSpaceOnUse" x="11" y="2" width="5" height="6">
<path d="M12.4446 7.60486L12.3726 7.36017L11.506 4.41643L11.465 4.27693L11.5659 4.17226L12.8044 2.88835L12.9537 2.73355L13.1291 2.85809L14.4918 3.8259L14.5862 3.89292L14.5961 4.00824L14.8484 6.93265L14.8709 7.19319L14.6096 7.20393L14.6096 7.20393L14.6096 7.20393L14.6093 7.20394L14.6082 7.20398L14.6037 7.20418L14.5857 7.20498L14.5179 7.20827C14.46 7.21124 14.3786 7.21575 14.2853 7.22193C14.0973 7.23437 13.8664 7.2532 13.6811 7.27894C13.5042 7.30353 13.2591 7.3642 13.0501 7.42173C12.9474 7.45001 12.8565 7.47667 12.7912 7.49626C12.7586 7.50604 12.7326 7.51403 12.7147 7.51954L12.6944 7.52586L12.6893 7.52745L12.6881 7.52783L12.6878 7.52792L12.6878 7.52792L12.4446 7.60486ZM12.4446 7.60486L12.6878 7.52793L12.4446 7.60486Z" fill="white" stroke="white" stroke-width="0.5"/>
</mask>
<g mask="url(#mask2_1661_1610)">
<path d="M12.4364 6.63784L12.1859 6.04776C12.7239 5.81226 13.6328 5.66776 14.5891 5.61126L14.6259 6.25275C13.7368 6.30527 12.8958 6.43675 12.4364 6.63784Z" fill="#C51918"/>
<path d="M12.0137 5.21047L11.7632 4.62039C12.3012 4.3849 13.4576 4.19425 14.414 4.13775L14.4507 4.77924C13.5617 4.83176 12.4731 5.00939 12.0137 5.21047Z" fill="#C51918"/>
</g>
<path d="M18.9687 7.60663L19.0367 7.35471L19.8324 4.40612L19.8682 4.27371L19.7757 4.17242L18.608 2.89336L18.4589 2.73004L18.2786 2.85809L16.9159 3.8259L16.8215 3.89292L16.8116 4.00824L16.5593 6.93265L16.5368 7.19319L16.7981 7.20393L16.7981 7.20393L16.7981 7.20393L16.7984 7.20394L16.7995 7.20398L16.804 7.20418L16.8219 7.20498L16.8898 7.20827C16.9477 7.21124 17.0291 7.21575 17.1224 7.22193C17.3104 7.23437 17.5413 7.2532 17.7266 7.27894C17.9035 7.30353 18.1486 7.3642 18.3575 7.42173C18.4603 7.45001 18.5512 7.47667 18.6165 7.49626C18.6491 7.50604 18.6751 7.51403 18.693 7.51954L18.7133 7.52586L18.7184 7.52745L18.7196 7.52783L18.7199 7.52792L18.7199 7.52792L18.9687 7.60663ZM18.9687 7.60663L18.7199 7.52793L18.9687 7.60663Z" fill="#2E42A5" stroke="white" stroke-width="0.5"/>
<mask id="mask3_1661_1610" style="mask-type:luminance" maskUnits="userSpaceOnUse" x="16" y="2" width="5" height="6">
<path d="M18.9687 7.60663L19.0367 7.35471L19.8324 4.40612L19.8682 4.27371L19.7757 4.17242L18.608 2.89336L18.4589 2.73004L18.2786 2.85809L16.9159 3.8259L16.8215 3.89292L16.8116 4.00824L16.5593 6.93265L16.5368 7.19319L16.7981 7.20393L16.7981 7.20393L16.7981 7.20393L16.7984 7.20394L16.7995 7.20398L16.804 7.20418L16.8219 7.20498L16.8898 7.20827C16.9477 7.21124 17.0291 7.21575 17.1224 7.22193C17.3104 7.23437 17.5413 7.2532 17.7266 7.27894C17.9035 7.30353 18.1486 7.3642 18.3575 7.42173C18.4603 7.45001 18.5512 7.47667 18.6165 7.49626C18.6491 7.50604 18.6751 7.51403 18.693 7.51954L18.7133 7.52586L18.7184 7.52745L18.7196 7.52783L18.7199 7.52792L18.7199 7.52792L18.9687 7.60663ZM18.9687 7.60663L18.7199 7.52793L18.9687 7.60663Z" fill="white" stroke="white" stroke-width="0.5"/>
</mask>
<g mask="url(#mask3_1661_1610)">
<path fill-rule="evenodd" clip-rule="evenodd" d="M18.3978 6.46649C18.3978 6.46649 18.6918 6.30286 18.7342 6.02698C18.7766 5.7511 19.2313 5.4113 19.0039 5.45175C18.7766 5.49219 18.9066 5.52378 18.5774 5.45175C18.2481 5.37971 17.822 5.33207 17.822 5.12968C17.822 4.9273 18.0338 4.76666 17.8607 4.76666C17.6875 4.76666 17.3182 4.57511 17.3923 4.72152C17.4665 4.86793 17.2217 4.70238 17.3441 5.00635C17.4665 5.31031 17.3182 5.61653 17.3923 5.69711C17.4665 5.77768 17.3441 6.17287 17.3441 6.17287C17.3441 6.17287 17.3891 6.31965 17.4677 6.09981C17.5464 5.87996 17.7185 5.72586 17.6325 5.91283C17.5464 6.09981 17.4366 6.54453 17.5345 6.46649C17.6325 6.38845 17.7298 6.17263 17.7298 6.09981C17.7298 6.02698 17.9769 5.74112 17.9769 5.957C17.9769 6.17287 17.7444 6.34288 17.8607 6.34288C17.9769 6.34288 18.0421 6.38875 18.1152 6.17287C18.1882 5.957 18.3657 5.81419 18.4385 5.957C18.5113 6.09981 18.4952 6.09218 18.3978 6.27933C18.3005 6.46649 18.3978 6.46649 18.3978 6.46649Z" fill="#FECA00"/>
<path fill-rule="evenodd" clip-rule="evenodd" d="M17.7072 4.86652L17.5978 4.68341C17.7942 4.56239 17.9745 4.53015 18.1328 4.59762C18.2049 4.6283 18.2591 4.66324 18.4005 4.76269L18.419 4.77567C18.5662 4.87892 18.6441 4.92098 18.6921 4.92098V5.13517C18.5823 5.13517 18.4873 5.08391 18.2991 4.95191L18.2804 4.93876C18.1531 4.84925 18.104 4.8176 18.0512 4.79512C17.9636 4.7578 17.8509 4.77795 17.7072 4.86652ZM17.3609 6.26345C17.423 6.26345 17.4734 6.21371 17.4734 6.15234C17.4734 6.09098 17.423 6.04123 17.3609 6.04123C17.2988 6.04123 17.2484 6.09098 17.2484 6.15234C17.2484 6.21371 17.2988 6.26345 17.3609 6.26345ZM17.6844 6.36653C17.6844 6.4279 17.634 6.47764 17.5719 6.47764C17.5097 6.47764 17.4594 6.4279 17.4594 6.36653C17.4594 6.30517 17.5097 6.25542 17.5719 6.25542C17.634 6.25542 17.6844 6.30517 17.6844 6.36653ZM17.9508 6.46938C18.0129 6.46938 18.0633 6.41964 18.0633 6.35827C18.0633 6.29691 18.0129 6.24716 17.9508 6.24716C17.8886 6.24716 17.8383 6.29691 17.8383 6.35827C17.8383 6.41964 17.8886 6.46938 17.9508 6.46938ZM18.4157 6.53609C18.4157 6.59746 18.3654 6.6472 18.3032 6.6472C18.2411 6.6472 18.1907 6.59746 18.1907 6.53609C18.1907 6.47473 18.2411 6.42498 18.3032 6.42498C18.3654 6.42498 18.4157 6.47473 18.4157 6.53609Z" fill="#C51918"/>
</g>
<path d="M21.3524 8.18595L21.2444 8.43469L21.0053 8.30695L21.0053 8.30695L21.0052 8.30694L21.005 8.30681L21.0039 8.30619L20.9988 8.30351L20.9782 8.29272C20.9601 8.28323 20.9332 8.26935 20.8992 8.25207C20.8311 8.21748 20.7344 8.16943 20.6207 8.1159C20.3917 8.00802 20.1006 7.88121 19.8373 7.79625C19.5645 7.70821 19.3201 7.64007 19.144 7.59397C19.056 7.57095 18.9852 7.55347 18.9368 7.54182L18.8814 7.52874L18.8675 7.52554L18.8642 7.52479L18.8635 7.52463L18.8634 7.52461L18.8633 7.5246L18.8633 7.5246L18.8633 7.5246L18.6049 7.46695L18.6773 7.21224L19.5233 4.23636L19.5579 4.11477L19.6763 4.07053L21.3346 3.45095L21.5285 3.37851L21.6359 3.55547L22.5751 5.10357L22.6421 5.21414L22.5907 5.33277L21.3524 8.18595Z" fill="#56C6F5" stroke="white" stroke-width="0.5"/>
<mask id="mask4_1661_1610" style="mask-type:luminance" maskUnits="userSpaceOnUse" x="18" y="3" width="5" height="6">
<path d="M21.3524 8.18595L21.2444 8.43469L21.0053 8.30695L21.0053 8.30695L21.0052 8.30694L21.005 8.30681L21.0039 8.30619L20.9988 8.30351L20.9782 8.29272C20.9601 8.28323 20.9332 8.26935 20.8992 8.25207C20.8311 8.21748 20.7344 8.16943 20.6207 8.1159C20.3917 8.00802 20.1006 7.88121 19.8373 7.79625C19.5645 7.70821 19.3201 7.64007 19.144 7.59397C19.056 7.57095 18.9852 7.55347 18.9368 7.54182L18.8814 7.52874L18.8675 7.52554L18.8642 7.52479L18.8635 7.52463L18.8634 7.52461L18.8633 7.5246L18.8633 7.5246L18.8633 7.5246L18.6049 7.46695L18.6773 7.21224L19.5233 4.23636L19.5579 4.11477L19.6763 4.07053L21.3346 3.45095L21.5285 3.37851L21.6359 3.55547L22.5751 5.10357L22.6421 5.21414L22.5907 5.33277L21.3524 8.18595Z" fill="white" stroke="white" stroke-width="0.5"/>
</mask>
<g mask="url(#mask4_1661_1610)">
<path fill-rule="evenodd" clip-rule="evenodd" d="M21.1274 5.08913L20.9854 5.24793C20.954 5.28306 20.8958 5.26415 20.8911 5.21727L20.8696 5.00536L20.6611 4.96182C20.615 4.95219 20.6022 4.89234 20.6405 4.86477L20.8132 4.7402L20.7467 4.53786C20.732 4.49309 20.7774 4.45215 20.8204 4.47147L21.0147 4.5588L21.1566 4.40001C21.188 4.36487 21.2462 4.38378 21.251 4.43067L21.2725 4.64257L21.481 4.68611C21.5271 4.69574 21.5399 4.75559 21.5016 4.78316L21.3289 4.90774L21.3954 5.11007C21.4101 5.15484 21.3647 5.19578 21.3217 5.17646L21.1274 5.08913Z" fill="#FECA00"/>
<path d="M18.9951 6.48762L19.2075 5.65845C20.1483 5.90695 21.129 6.22544 21.8484 6.53341L21.5207 7.32289C20.841 7.03195 19.8985 6.72624 18.9951 6.48762Z" fill="#E31D1C"/>
<path d="M19.2831 5.72197L19.3332 5.5139C20.2351 5.73772 21.1937 6.09484 21.8903 6.42746L21.8005 6.62129C21.1173 6.29506 20.1719 5.94254 19.2831 5.72197Z" fill="white"/>
<path d="M19.0157 6.57652L19.0658 6.36845C19.9677 6.59227 20.8013 6.89597 21.4979 7.22859L21.4082 7.42242C20.725 7.09619 19.9046 6.79709 19.0157 6.57652Z" fill="white"/>
<path d="M19.4229 6.17499L19.616 6.08778C19.6973 6.27809 19.7977 6.32002 19.9656 6.23845C20.3621 6.04579 21.3457 6.31502 21.3457 6.67806C21.3457 6.81968 21.2636 6.90555 21.1383 6.90058C21.0676 6.89777 20.9921 6.86982 20.8813 6.81506C20.8679 6.80842 20.859 6.80397 20.8372 6.79289C20.7148 6.73043 20.7055 6.72587 20.6729 6.71413L20.7427 6.50947C20.7878 6.52575 20.7949 6.52924 20.931 6.59862C20.952 6.60928 20.9601 6.61341 20.9727 6.61961C21.0576 6.66159 21.1144 6.6826 21.1464 6.68387C21.1494 6.68399 21.1348 6.69929 21.1348 6.67806C21.1348 6.51832 20.3342 6.2992 20.0557 6.43452C19.7779 6.56948 19.5509 6.47467 19.4229 6.17499Z" fill="#272727"/>
</g>
</g>
</g>
<defs>
<clipPath id="clip0_1661_1610">
<rect width="32" height="24" fill="white"/>
</clipPath>
</defs>
</svg>
